<svg xmlns="http://www.w3.org/2000/svg" xmlns:xlink="http://www.w3.org/1999/xlink" width="200" height="200"><defs><linearGradient id="a"><stop offset="0" style="stop-color:#374d91;stop-opacity:1"/><stop offset="1" style="stop-color:#2f569e;stop-opacity:.85388857"/></linearGradient><linearGradient id="c" x1="0%" x2="100%" y1="0%" y2="100%"><stop offset="0%" stop-color="#2D5F2D"/><stop offset="100%" stop-color="#7D9F7D"/></linearGradient><linearGradient id="d" x1="0%" x2="100%" y1="0%" y2="100%"><stop offset="0%" stop-color="#2B4B8C"/><stop offset="100%" stop-color="#6B5CA5"/></linearGradient><linearGradient id="b" x1="0%" x2="100%" y1="0%" y2="100%"><stop offset="0%" stop-color="#B8860B"/><stop offset="100%" stop-color="#DAA520"/></linearGradient><linearGradient xlink:href="#a" id="f" x1="83.726" x2="116.274" y1="100" y2="100" gradientTransform="translate(-20.337 -20.337) scale(1.20337)" gradientUnits="userSpaceOnUse"/><linearGradient xlink:href="#b" id="r" x1="138" x2="150" y1="118" y2="130" gradientTransform="matrix(1.1773 0 0 1.1773 -25.414 -22.104)" gradientUnits="userSpaceOnUse"/><linearGradient xlink:href="#b" id="n" x1="110" x2="122" y1="58" y2="70" gradientTransform="matrix(1.55162 0 0 1.55162 -63.751 -35.776)" gradientUnits="userSpaceOnUse"/><linearGradient xlink:href="#b" id="p" x1="54" x2="66" y1="84" y2="96" gradientTransform="translate(-26.241 -38.534) scale(1.43341)" gradientUnits="userSpaceOnUse"/><linearGradient xlink:href="#c" id="x" x1="28" x2="36" y1="92" y2="100" gradientTransform="matrix(1.65012 0 0 1.65012 -20.804 -62.411)" gradientUnits="userSpaceOnUse"/><linearGradient xlink:href="#c" id="y" x1="162" x2="170" y1="132" y2="140" gradientTransform="translate(-68.44 -56.501) scale(1.41371)" gradientUnits="userSpaceOnUse"/><linearGradient xlink:href="#c" id="l" x1="152" x2="160" y1="56" y2="64" gradientTransform="matrix(1.47281 0 0 1.47281 -71.868 -30.26)" gradientUnits="userSpaceOnUse"/><linearGradient xlink:href="#c" id="m" x1="160" x2="168" y1="76" y2="84" gradientTransform="matrix(1.35461 0 0 1.35461 -56.738 -29.196)" gradientUnits="userSpaceOnUse"/><linearGradient xlink:href="#c" id="w" x1="72" x2="80" y1="164" y2="172" gradientTransform="matrix(1.2955 0 0 1.2955 -22.695 -49.882)" gradientUnits="userSpaceOnUse"/><linearGradient xlink:href="#c" id="i" x1="96" x2="104" y1="152" y2="160" gradientTransform="translate(-43.972 -69.504) scale(1.44326)" gradientUnits="userSpaceOnUse"/><linearGradient xlink:href="#b" id="q" x1="74" x2="86" y1="138" y2="150" gradientTransform="matrix(1.3349 0 0 1.3349 -26.911 -48.109)" gradientUnits="userSpaceOnUse"/><linearGradient xlink:href="#b" id="s" x1="134" x2="146" y1="64" y2="76" gradientTransform="matrix(1.1182 0 0 1.1182 -16.312 -8.51)" gradientUnits="userSpaceOnUse"/><linearGradient xlink:href="#c" id="g" x1="40" x2="48" y1="72" y2="80" gradientTransform="matrix(1.1773 0 0 1.1773 -8.51 -14.184)" gradientUnits="userSpaceOnUse"/><linearGradient xlink:href="#c" id="o" x1="36" x2="44" y1="112" y2="120" gradientTransform="matrix(1.2955 0 0 1.2955 -13.002 -33.097)" gradientUnits="userSpaceOnUse"/><linearGradient xlink:href="#c" id="h" x1="52" x2="60" y1="148" y2="156" gradientTransform="matrix(1.35461 0 0 1.35461 -21.277 -53.9)" gradientUnits="userSpaceOnUse"/><linearGradient xlink:href="#c" id="k" x1="164" x2="172" y1="112" y2="120" gradientTransform="matrix(1.14775 0 0 1.14775 -24.232 -17.73)" gradientUnits="userSpaceOnUse"/><linearGradient xlink:href="#c" id="j" x1="150" x2="158" y1="100" y2="108" gradientTransform="matrix(1.26596 0 0 1.26596 -39.894 -28.723)" gradientUnits="userSpaceOnUse"/><linearGradient xlink:href="#c" id="u" x1="100" x2="108" y1="32" y2="40" gradientTransform="matrix(1.32506 0 0 1.32506 -34.397 -13.002)" gradientUnits="userSpaceOnUse"/><linearGradient xlink:href="#c" id="t" x1="120" x2="128" y1="36" y2="44" gradientTransform="matrix(1.2955 0 0 1.2955 -36.88 -11.584)" gradientUnits="userSpaceOnUse"/><linearGradient xlink:href="#c" id="v" x1="140" x2="148" y1="40" y2="48" gradientTransform="translate(-59.338 -18.44) scale(1.41371)" gradientUnits="userSpaceOnUse"/><filter id="e" width="1.063" height="1.063" x="-.032" y="-.032"><feGaussianBlur result="blur" stdDeviation="2"/><feComposite in="SourceGraphic" in2="blur"/></filter></defs><circle cx="100" cy="100" r="96" fill="#fff" stroke="url(#d)" stroke-width="2.5" filter="url(#e)"><animate attributeName="r" dur="6s" repeatCount="indefinite" values="96;98;96"/></circle><path stroke="#654321" stroke-opacity=".5" stroke-width=".5" d="m76 168-16 12M144 44l8-16"/><circle cx="152.591" cy="27.409" r="3.3" fill="#8b7355" fill-opacity=".6" style="stroke-width:1.65012"/><circle cx="100" cy="100" r="40" fill="none" stroke="#6B5CA5" stroke-dasharray="2 2" stroke-opacity=".8"><animate attributeName="stroke-opacity" dur="8s" repeatCount="indefinite" values="0.8;0.6;0.8"/></circle><path stroke="url(#d)" stroke-opacity=".8" stroke-width="1.2" d="m106 86 10-22M90 94l-30-4M94 112l-14 32M112 108l32 16M110 88l30-18"/><circle cx="100" cy="100" r="68" fill="none" stroke="#7D9F7D" stroke-dasharray="3 3" stroke-opacity=".6"><animate attributeName="stroke-opacity" dur="10s" repeatCount="indefinite" values="0.6;0.4;0.6"/></circle><circle cx="100" cy="100" r="19.584" fill="url(#b)" style="fill:url(#f);fill-opacity:1;stroke-width:2.448"><animate attributeName="r" dur="3s" repeatCount="indefinite" values="19.583923;20.5;19.583923"/></circle><circle cx="136" cy="54" r="4" fill="url(#c)" fill-opacity=".8"/><circle cx="43.291" cy="75.291" r="4.709" fill="url(#c)" fill-opacity=".8" style="fill:url(#g);stroke-width:1.1773"/><circle cx="54.582" cy="152" r="5.418" fill="url(#c)" fill-opacity=".8" style="fill:url(#h);stroke-width:1.35461"/><circle cx="100.355" cy="155.645" r="5.773" fill="url(#c)" fill-opacity=".8" style="fill:url(#i);stroke-width:1.44327"/><circle cx="155.064" cy="102.936" r="5.064" fill="url(#c)" fill-opacity=".8" style="fill:url(#j);stroke-width:1.26596"/><circle cx="168.591" cy="115.409" r="4.591" fill="url(#c)" fill-opacity=".8" style="fill:url(#k);stroke-width:1.14775"/><circle cx="157.891" cy="58.109" r="5.891" fill="url(#c)" fill-opacity=".8" style="fill:url(#l);stroke-width:1.47282"/><circle cx="165.418" cy="79.173" r="5.418" fill="url(#c)" fill-opacity=".8" style="fill:url(#m);stroke-width:1.35461"/><path stroke="#5D8A5D" stroke-opacity=".7" stroke-width=".8" d="m116 64 8-24M116 64l-12-28M116 64l20-10"/><circle cx="116.236" cy="63.527" r="9.31" fill="url(#b)" fill-opacity=".9" style="fill:url(#n);stroke-width:1.5516"/><path stroke="#5D8A5D" stroke-opacity=".7" stroke-width=".8" d="M60 90 44 76M60 90l-28 6M60 90l-20 26"/><circle cx="38.818" cy="117.182" r="5.182" fill="url(#c)" fill-opacity=".8" style="fill:url(#o);stroke-width:1.29551"/><circle cx="59.764" cy="90.473" r="8.6" fill="url(#b)" fill-opacity=".9" style="fill:url(#p);stroke-width:1.4334"/><path stroke="#5D8A5D" stroke-opacity=".7" stroke-width=".8" d="m80 144-24 8M80 144l-4 24M80 144l20 12"/><circle cx="79.882" cy="144.118" r="8.009" fill="url(#b)" fill-opacity=".9" style="fill:url(#q);stroke-width:1.3349"/><path stroke="#5D8A5D" stroke-opacity=".7" stroke-width=".8" d="m144 124 22 12M144 124l10-20M144 124l24-8"/><circle cx="144.118" cy="123.882" r="7.064" fill="url(#b)" fill-opacity=".9" style="fill:url(#r);stroke-width:1.1773"/><path stroke="#5D8A5D" stroke-opacity=".7" stroke-width=".8" d="m140 70 16-10M140 70l24 10M140 70l4-26"/><circle cx="140.236" cy="69.764" r="6.709" fill="url(#b)" fill-opacity=".9" style="fill:url(#s);stroke-width:1.1182"/><circle cx="116" cy="16" r="2" fill="#8B7355" fill-opacity=".6"/><circle cx="95.291" cy="13.291" r="2.709" fill="#8b7355" fill-opacity=".6" style="stroke-width:1.35461"/><circle cx="164" cy="40" r="2" fill="#8B7355" fill-opacity=".6"/><circle cx="174" cy="56" r="2" fill="#8B7355" fill-opacity=".6"/><circle cx="182" cy="76" r="2" fill="#8B7355" fill-opacity=".6"/><circle cx="186" cy="96" r="2" fill="#8B7355" fill-opacity=".6"/><circle cx="184" cy="116" r="2" fill="#8B7355" fill-opacity=".6"/><circle cx="181.418" cy="136.236" r="3.418" fill="#8b7355" fill-opacity=".6" style="stroke-width:1.70922"/><circle cx="172" cy="156" r="2" fill="#8B7355" fill-opacity=".6"/><circle cx="160" cy="170" r="2" fill="#8B7355" fill-opacity=".6"/><circle cx="140" cy="182" r="2" fill="#8B7355" fill-opacity=".6"/><circle cx="120" cy="186" r="2" fill="#8B7355" fill-opacity=".6"/><circle cx="100" cy="188" r="2" fill="#8B7355" fill-opacity=".6"/><circle cx="80" cy="186" r="2" fill="#8B7355" fill-opacity=".6"/><circle cx="60.827" cy="179.173" r="3.537" fill="#8b7355" fill-opacity=".6" style="stroke-width:1.76833"/><circle cx="42" cy="172" r="2" fill="#8B7355" fill-opacity=".6"/><circle cx="28" cy="160" r="2" fill="#8B7355" fill-opacity=".6"/><circle cx="16" cy="144" r="2" fill="#8B7355" fill-opacity=".6"/><circle cx="24" cy="130" r="2" fill="#8B7355" fill-opacity=".6"/><circle cx="14" cy="112" r="2" fill="#8B7355" fill-opacity=".6"/><circle cx="16" cy="68" r="2" fill="#8B7355" fill-opacity=".6"/><circle cx="24" cy="50" r="2" fill="#8B7355" fill-opacity=".6"/><circle cx="36" cy="34" r="2" fill="#8B7355" fill-opacity=".6"/><circle cx="52" cy="22" r="2" fill="#8B7355" fill-opacity=".6"/><circle cx="72" cy="16" r="2" fill="#8B7355" fill-opacity=".6"/><circle cx="123.764" cy="40.236" r="5.182" fill="url(#c)" fill-opacity=".8" style="fill:url(#t);stroke-width:1.2955"/><path stroke="#654321" stroke-opacity=".5" stroke-width=".5" d="m124 40 12-18"/><circle cx="137.182" cy="20.818" r="3.182" fill="#8b7355" fill-opacity=".6" style="stroke-width:1.59102"/><path stroke="#654321" stroke-opacity=".5" stroke-width=".5" d="m104 36-8-22"/><circle cx="103.409" cy="34.7" r="5.3" fill="url(#c)" fill-opacity=".8" style="fill:url(#u);stroke-width:1.32505"/><circle cx="144.236" cy="43.764" r="5.655" fill="url(#c)" fill-opacity=".8" style="fill:url(#v);stroke-width:1.41372"/><circle cx="75.764" cy="167.764" r="5.182" fill="url(#c)" fill-opacity=".8" style="fill:url(#w);stroke-width:1.2955"/><path stroke="#654321" stroke-opacity=".5" stroke-width=".5" d="m32 96-20-6"/><circle cx="12.236" cy="89.764" r="3.655" fill="#8b7355" fill-opacity=".6" style="stroke-width:1.82743"/><circle cx="32" cy="96" r="6.6" fill="url(#c)" fill-opacity=".8" style="fill:url(#x);stroke-width:1.6501"/><path stroke="#654321" stroke-opacity=".5" stroke-width=".5" d="M166 136h14"/><circle cx="166.236" cy="135.764" r="5.655" fill="url(#c)" fill-opacity=".8" style="fill:url(#y);stroke-width:1.41372"/></svg>
